Patient4_TMGait_0pt2_03_right_26_EMG.mot
version=1
nRows=13
nColumns=33
inDegrees=no
endheader
time	1LAddLong	2LGlutMax	3LGlutMed	4LIliopsoas	5LSemiMemb	6LBicFemLong	7LRecFem	8LVastMed	9LVastLat	10LGasMed	11LTibAnt	12lTibPost	13LPeroneusLong	14LSol	15LExtDigLong	16LFlexDigLong	17RAddLong	18RGlutMax	19RGlutMed	20RIliopsoas	21RSemiMemb	22RBicFemLong	23RRecFem	24RVastMed	25RVastLat	26RGasMed	27RTibAnt	28RTibPost	29RPeroneusLong	30RSol	31RExtDigLong	32RFlexDigLong
57.605	0.032349	-0.13107	-0.062256	0.01358	-0.001373	-0.12131	-0.003204	-0.015564	-0.058594	-0.002136	0.005341	0.008087	-0.096283	-0.041656	-0.083008	0.007019	0.004578	-0.090332	-0.26871	0.063629	0.000763	-0.020142	0.17502	-0.044098	0.00473	-0.001373	-0.077667	-0.013733	0.23819	0.032959	-0.001678	-0.016174
57.606	0.036316	-0.071411	-0.028381	-0.010529	0.054169	-0.11597	0.041199	0.009613	-0.061035	-0.071106	0.005951	0.004883	0.30212	-0.003204	0.02121	0.011749	-0.012054	-0.056305	-0.1384	0.036621	0.007019	-0.018768	0.15213	-0.019226	-0.001678	-0.009613	0.046539	-0.011139	-0.005493	-0.026855	-0.004883	-0.012817
57.607	0.025024	-0.010529	0.014496	-0.001068	0.068512	-0.030365	0.064545	0.015869	0.066071	-0.065002	0.013885	0.004578	-0.13168	0.023193	0.028381	0.009766	-0.019379	-0.010681	-0.24872	0.037994	0.02594	-0.015259	0.20187	-0.044556	0.009613	-0.00824	0.13947	-0.006561	-0.11353	-0.07843	-0.004578	-0.018616
57.608	0.019836	-0.003204	-0.080109	0.010223	0.033264	0.001373	0.16388	0.030212	0.22614	-0.066223	0.009766	0.007324	-0.22736	0.071106	0.035706	0.01358	-0.018463	0.011139	-0.35294	0.064392	0.031738	-0.015106	0.26581	0.001373	0.007477	-0.007019	0.34225	-0.008087	-0.15625	-0.00824	-0.006104	-0.013428
57.609	-0.009613	-0.016327	-0.15869	0.014954	0.019379	-0.001373	0.19333	0.0354	0.28091	-0.024109	0.009613	0.00885	-0.093689	-0.033722	0.005798	0.00824	-0.009003	-0.09964	-0.32913	0.075226	0.082245	-0.013885	0.24338	0.072632	0.011902	-0.009155	0.41992	-0.00824	-0.27786	0.006256	-0.004425	-0.009918
57.61	-0.044708	-0.00351	-0.065308	0.023499	0.018158	-0.003967	0.1712	0.004578	0.3566	-0.022125	0.014954	0.005951	0.00473	-0.031433	0.001068	0.017242	0.013733	-0.091858	-0.2739	0.11078	0.074158	-0.003967	0.23468	0.061798	0.001831	0.003662	0.4808	0.001221	-0.15381	-0.11169	-0.001373	-0.014954
57.611	0.004883	-0.042419	0.047607	-0.00885	0.013275	0.042877	0.13473	-0.006104	0.38666	0.031128	0.018463	-0.001068	-0.065613	-0.029602	-0.006714	0.011749	0.026703	-0.059967	0.10635	0.061493	0.07019	-0.015259	0.23972	0.009003	0.003967	0.011749	0.50247	-0.004883	-0.020599	-0.17075	0.007935	-0.012207
57.612	-0.001526	-0.012665	0.02121	-0.002136	0.012207	-0.025024	0.10849	0.003662	0.2771	0.09964	0.014954	-0.002441	-0.085907	0.017395	-0.003204	-0.014038	0.034943	-0.051117	0.12466	-0.031128	0.068054	0.009613	0.2504	0.031586	-0.002899	-0.000305	0.16464	-0.006561	-0.013275	-0.097504	0.001068	-0.016785
57.613	0.021515	0.001526	-0.06958	-0.006409	0.0177	-0.036926	0.092316	0.010376	0.10925	0.15579	-0.002747	0.004578	0.28519	0.031281	0.010223	-0.030518	0.027466	-0.065002	-0.41229	-0.052948	0.052948	0.007324	0.25421	-0.001831	0.018005	-0.00473	0.075073	-0.006409	-0.055389	-0.065002	-0.005035	-0.016785
57.614	0.019684	-0.092468	-0.076294	0.019684	0.018616	-0.010529	-0.051422	0.004272	-0.11704	0.16007	-0.000305	0.008545	0.43106	0.031281	0.031738	-0.001221	-0.00824	-0.02655	-0.22247	-0.044708	0.046387	-0.005035	0.2356	0.016022	0.013275	-0.007324	0.078735	-0.007782	-0.16312	0.075378	-0.000458	-0.016022
57.615	0.019836	-0.10422	0.16373	0.003357	0.00061	0.038147	-0.050049	-0.011749	-0.27374	0.081787	-0.004272	0.005341	0.48996	-0.018463	0.003357	0.003052	-0.021667	0.032501	-0.26825	-0.056763	0.045929	-0.01358	0.20294	0.011597	0.018616	-0.005493	0.015411	-0.006256	-0.066071	0.1239	-0.004425	-0.013123
57.616	0.006104	-0.12589	0.1091	0.009003	-0.004883	0.068665	0.04303	-0.012665	-0.177	-0.057983	0.001526	0.002289	-0.038452	-0.02121	-0.020599	0.008087	-0.043488	0.052338	-0.005493	-0.067596	0.032806	-0.00061	0.14572	0.00061	0.030365	0.003052	-0.045013	-0.001984	0.053558	0.084991	-0.004578	-0.006866
57.617	-0.002441	-0.10361	0.024567	0.028687	-0.005646	0.099487	0.057983	0.011597	-0.018616	-0.040588	0.023346	0.004272	-0.35263	-0.012054	-0.054626	0.005951	-0.067139	-0.016785	-0.40695	-0.035858	0.032806	0.019531	0.12024	0.037384	0.041656	0.002899	-0.1857	0.00061	0.097198	0.050354	-0.002136	-0.003052
